<?xml version="1.0" encoding="UTF-8" standalone="no"?>
<!DOCTYPE svg PUBLIC "-//W3C//DTD SVG 1.1//EN" "http://www.w3.org/Graphics/SVG/1.1/DTD/svg11.dtd">
<svg xmlns="http://www.w3.org/2000/svg" version="1.1" viewBox="0.00 0.00 1494.00 282.00">
<g stroke-width="2.00" fill="none" stroke-linecap="butt">
<path stroke="#a599e1" vector-effect="non-scaling-stroke" d="
  M 224.69 176.63
  Q 237.99 145.23 227.25 111.86
  Q 225.53 106.53 221.90 100.45
  C 217.66 93.32 214.05 85.79 208.17 79.55
  C 191.03 61.35 168.25 50.57 143.46 50.04
  C 107.02 49.24 74.54 69.32 58.81 101.96
  C 48.76 122.82 47.13 147.86 54.79 170.20
  C 65.93 202.65 93.86 225.95 127.78 231.04
  C 160.12 235.88 192.69 222.67 212.66 197.06
  Q 215.66 193.21 219.10 187.35
  Q 222.87 180.93 224.69 176.63"
/>
<path stroke="#b3b8c2" vector-effect="non-scaling-stroke" d="
  M 1312.3999 94.4507
  A 9.41 8.89 -0.3 0 0 1302.9435 85.6101
  A 9.41 8.89 -0.3 0 0 1293.5801 94.5493
  A 9.41 8.89 -0.3 0 0 1303.0365 103.3899
  A 9.41 8.89 -0.3 0 0 1312.3999 94.4507"
/>
<path stroke="#b3b8c2" vector-effect="non-scaling-stroke" d="
  M 789.01 159.53
  C 787.69 167.10 781.70 173.61 774.99 176.44
  Q 767.14 179.75 758.79 178.62
  C 742.04 176.37 733.65 162.39 732.41 146.32
  C 731.47 134.16 733.06 122.06 740.39 112.83
  C 748.69 102.39 762.95 99.72 774.89 104.79
  Q 786.26 109.63 789.18 122.27
  Q 789.30 122.75 789.80 122.75
  L 804.46 122.75
  A 0.29 0.29 0.0 0 0 804.74 122.41
  C 800.57 98.61 779.87 85.58 756.49 88.67
  C 734.99 91.52 721.08 107.64 717.83 128.49
  C 714.13 152.16 720.79 180.34 745.78 189.85
  Q 759.70 195.15 774.98 191.34
  C 790.63 187.44 801.66 175.32 804.68 159.33
  Q 804.79 158.75 804.20 158.75
  L 789.94 158.75
  Q 789.15 158.75 789.01 159.53"
/>
<path stroke="#888c94" vector-effect="non-scaling-stroke" d="
  M 362.48 121.63
  C 364.10 140.80 384.25 145.36 399.52 148.50
  Q 406.73 149.99 412.21 152.90
  Q 417.64 155.79 417.46 162.33
  C 417.29 168.38 412.55 172.91 406.94 174.23
  C 395.95 176.80 381.20 175.09 378.71 161.96
  Q 377.99 158.18 378.32 154.34
  Q 378.39 153.62 377.66 153.62
  L 360.60 153.62
  A 0.44 0.43 -87.9 0 0 360.17 154.03
  C 359.54 164.09 361.78 173.70 369.06 180.83
  C 379.73 191.29 396.45 193.28 410.66 190.18
  C 426.25 186.79 436.79 175.00 435.56 158.29
  C 434.08 138.10 410.96 133.75 395.21 130.20
  C 388.06 128.59 379.71 125.52 380.58 116.38
  C 381.57 106.00 393.60 104.89 401.82 106.16
  Q 414.63 108.15 414.98 120.96
  Q 415.03 123.03 415.00 125.08
  Q 414.99 125.64 415.55 125.64
  L 432.74 125.63
  A 0.32 0.32 0.0 0 0 433.06 125.33
  C 433.63 116.56 432.26 108.20 426.54 101.24
  C 414.58 86.68 385.17 85.77 371.30 97.50
  Q 361.17 106.06 362.48 121.63"
/>
<path stroke="#888c94" vector-effect="non-scaling-stroke" d="
  M 537.7970 101.0002
  A 11.47 11.32 1.3 0 0 526.5868 89.4229
  A 11.47 11.32 1.3 0 0 514.8630 100.4798
  A 11.47 11.32 1.3 0 0 526.0732 112.0571
  A 11.47 11.32 1.3 0 0 537.7970 101.0002"
/>
<path stroke="#888c94" vector-effect="non-scaling-stroke" d="
  M 309.75 108.57
  A 0.32 0.32 0.0 0 1 310.07 108.25
  L 353.93 108.25
  A 0.32 0.32 0.0 0 0 354.25 107.93
  L 354.25 91.82
  A 0.32 0.32 0.0 0 0 353.93 91.50
  L 291.57 91.50
  A 0.32 0.32 0.0 0 0 291.25 91.82
  L 291.25 189.18
  A 0.32 0.32 0.0 0 0 291.57 189.50
  L 354.81 189.50
  A 0.32 0.32 0.0 0 0 355.13 189.18
  L 355.12 173.07
  A 0.32 0.32 0.0 0 0 354.80 172.75
  L 310.07 172.75
  A 0.32 0.32 0.0 0 1 309.75 172.43
  L 309.75 148.82
  A 0.32 0.32 0.0 0 1 310.07 148.50
  L 350.05 148.50
  A 0.32 0.32 0.0 0 0 350.37 148.18
  L 350.38 131.91
  A 0.32 0.32 0.0 0 0 350.06 131.59
  L 310.07 131.62
  A 0.32 0.32 0.0 0 1 309.75 131.30
  L 309.75 108.57"
/>
<path stroke="#888c94" vector-effect="non-scaling-stroke" d="
  M 464.07 172.75
  A 0.32 0.32 0.0 0 1 463.75 172.43
  L 463.75 91.82
  A 0.32 0.32 0.0 0 0 463.43 91.50
  L 445.57 91.50
  A 0.32 0.32 0.0 0 0 445.25 91.82
  L 445.25 189.18
  A 0.32 0.32 0.0 0 0 445.57 189.50
  L 508.18 189.50
  A 0.32 0.32 0.0 0 0 508.50 189.18
  L 508.50 173.07
  A 0.32 0.32 0.0 0 0 508.18 172.75
  L 464.07 172.75"
/>
<path stroke="#b3b8c2" vector-effect="non-scaling-stroke" d="
  M 1346.85 127.15
  L 1361.18 127.14
  Q 1361.75 127.14 1361.75 126.57
  L 1361.75 115.71
  A 0.59 0.58 90.0 0 0 1361.17 115.12
  L 1346.51 115.14
  Q 1346.13 115.14 1346.13 114.76
  L 1346.13 97.36
  A 0.49 0.48 0.0 0 0 1345.64 96.88
  L 1331.82 96.86
  Q 1331.25 96.86 1331.25 97.43
  L 1331.25 114.70
  Q 1331.25 115.14 1330.80 115.14
  L 1320.61 115.12
  A 0.48 0.48 0.0 0 0 1320.13 115.60
  L 1320.12 126.50
  Q 1320.12 127.14 1320.75 127.14
  L 1330.76 127.15
  Q 1331.21 127.15 1331.22 127.60
  Q 1331.34 146.35 1331.17 167.03
  Q 1331.09 176.56 1332.66 180.28
  C 1337.64 192.04 1351.13 194.48 1362.62 191.13
  Q 1363.21 190.96 1363.08 190.36
  L 1360.66 179.26
  Q 1360.50 178.50 1359.74 178.69
  C 1352.84 180.45 1346.18 178.72 1346.16 170.14
  Q 1346.10 148.55 1346.13 127.87
  Q 1346.13 127.15 1346.85 127.15"
/>
<path stroke="#888c94" vector-effect="non-scaling-stroke" d="
  M 660.06 134.63
  L 677.93 134.63
  Q 678.50 134.64 678.50 134.07
  L 678.50 120.50
  A 0.50 0.50 0.0 0 0 678.00 120.00
  L 660.00 120.00
  Q 659.50 120.00 659.50 119.50
  L 659.50 99.00
  Q 659.50 98.50 659.00 98.50
  L 642.43 98.50
  Q 641.87 98.50 641.87 99.07
  L 641.88 119.44
  Q 641.88 120.00 641.31 120.00
  L 625.00 120.00
  Q 624.50 120.00 624.50 120.50
  L 624.50 134.00
  Q 624.50 134.63 625.13 134.63
  L 641.46 134.64
  A 0.35 0.35 0.0 0 1 641.81 134.99
  Q 642.00 153.30 641.78 170.95
  C 641.69 178.67 643.17 184.99 650.47 188.26
  Q 653.76 189.73 660.35 189.56
  Q 668.12 189.37 676.12 189.55
  Q 676.88 189.57 676.88 188.82
  L 676.87 175.69
  Q 676.87 175.01 676.19 175.01
  L 662.89 174.99
  A 3.40 3.39 -90.0 0 1 659.50 171.59
  L 659.50 135.19
  Q 659.50 134.63 660.06 134.63"
/>
<path stroke="#b3b8c2" vector-effect="non-scaling-stroke" d="
  M 843.54 192.55
  C 858.21 194.67 871.94 189.75 879.63 176.98
  C 889.56 160.47 887.36 133.40 871.69 121.19
  C 857.92 110.46 835.71 111.88 824.02 125.06
  C 814.74 135.51 812.75 150.67 815.29 163.99
  C 818.10 178.75 828.49 190.39 843.54 192.55"
/>
<path stroke="#b3b8c2" vector-effect="non-scaling-stroke" d="
  M 912.18 126.21
  Q 912.04 120.69 912.18 115.54
  A 0.41 0.41 0.0 0 0 911.77 115.12
  L 898.24 115.13
  A 0.38 0.38 0.0 0 0 897.86 115.51
  L 897.86 190.93
  Q 897.86 191.50 898.43 191.50
  L 912.07 191.50
  Q 912.74 191.50 912.74 190.83
  Q 912.77 168.58 912.72 144.67
  C 912.71 138.55 915.16 132.77 920.34 129.43
  C 927.32 124.92 938.23 126.74 941.37 134.93
  Q 942.53 137.97 942.46 144.98
  Q 942.23 167.92 942.41 190.97
  Q 942.41 191.50 942.95 191.50
  L 956.56 191.50
  Q 957.25 191.50 957.25 190.81
  Q 957.25 166.04 957.25 142.02
  C 957.25 134.71 961.94 128.17 969.68 127.17
  C 978.89 125.99 986.77 130.72 986.81 140.74
  Q 986.92 166.28 986.85 191.11
  Q 986.84 191.50 987.24 191.50
  L 1001.22 191.50
  Q 1001.74 191.50 1001.74 190.98
  Q 1001.78 164.40 1001.72 139.38
  C 1001.68 124.06 992.53 113.40 976.73 114.16
  Q 961.74 114.88 955.19 127.45
  A 0.40 0.39 -43.2 0 1 954.48 127.43
  Q 949.67 116.68 939.17 114.62
  C 928.73 112.58 918.15 116.32 913.55 126.48
  Q 912.26 129.32 912.18 126.21"
/>
<path stroke="#b3b8c2" vector-effect="non-scaling-stroke" d="
  M 1032.05 127.66
  Q 1031.98 127.67 1031.92 127.62
  Q 1031.78 127.49 1031.78 127.31
  Q 1031.72 121.57 1031.76 115.51
  A 0.38 0.38 0.0 0 0 1031.38 115.13
  L 1018.00 115.13
  Q 1017.37 115.13 1017.37 115.75
  L 1017.37 191.06
  Q 1017.37 191.50 1017.81 191.50
  L 1031.80 191.50
  A 0.45 0.45 0.0 0 0 1032.25 191.05
  Q 1032.29 169.31 1032.21 146.66
  C 1032.19 139.89 1033.42 134.47 1038.84 130.16
  C 1045.61 124.78 1056.39 126.25 1060.56 134.11
  Q 1061.93 136.70 1061.91 141.31
  Q 1061.81 167.23 1061.88 191.12
  A 0.38 0.38 0.0 0 0 1062.26 191.50
  L 1076.47 191.50
  Q 1076.71 191.50 1076.71 191.25
  Q 1076.85 167.90 1076.68 144.77
  Q 1076.64 139.30 1077.85 136.21
  C 1081.43 127.11 1091.64 124.76 1099.71 128.82
  Q 1106.42 132.21 1106.38 142.00
  Q 1106.33 152.88 1106.38 190.85
  Q 1106.38 191.50 1107.04 191.50
  L 1120.70 191.50
  Q 1121.26 191.50 1121.26 190.95
  Q 1121.24 166.81 1121.26 141.57
  C 1121.26 136.57 1120.86 131.39 1118.79 126.77
  C 1114.11 116.36 1103.00 112.71 1092.12 114.63
  C 1085.62 115.77 1078.88 119.63 1075.84 125.53
  Q 1075.34 126.50 1074.70 127.33
  Q 1074.17 128.01 1073.84 127.22
  C 1071.10 120.69 1066.01 116.18 1059.14 114.73
  C 1048.24 112.43 1037.36 116.37 1032.83 127.06
  A 1.00 1.00 0.0 0 1 1032.05 127.66"
/>
<path stroke="#b3b8c2" vector-effect="non-scaling-stroke" d="
  M 1230.49 127.60
  A 0.42 0.42 0.0 0 1 1230.27 127.23
  L 1230.24 115.68
  Q 1230.24 115.12 1229.68 115.12
  L 1216.93 115.14
  Q 1216.00 115.14 1216.00 116.07
  L 1216.00 191.25
  Q 1216.00 191.50 1216.25 191.50
  L 1230.28 191.50
  Q 1230.87 191.50 1230.87 190.90
  Q 1230.86 170.49 1230.88 145.90
  C 1230.88 135.08 1237.51 127.00 1248.73 127.04
  Q 1257.40 127.06 1261.65 133.10
  C 1264.57 137.24 1264.92 141.80 1264.91 146.79
  Q 1264.83 168.07 1264.86 190.86
  Q 1264.86 191.50 1265.50 191.50
  L 1279.26 191.49
  A 0.45 0.44 -0.0 0 0 1279.71 191.05
  Q 1279.81 166.43 1279.71 141.24
  C 1279.67 129.04 1273.82 118.36 1261.70 115.16
  C 1249.70 111.99 1237.25 115.38 1231.29 127.29
  Q 1231.01 127.86 1230.49 127.60"
/>
<path stroke="#b3b8c2" vector-effect="non-scaling-stroke" d="
  M 1184.87 178.56
  Q 1185.62 177.38 1185.62 178.78
  L 1185.63 190.81
  A 0.69 0.68 -90.0 0 0 1186.31 191.50
  L 1199.75 191.50
  Q 1200.25 191.50 1200.25 191.00
  L 1200.25 115.75
  Q 1200.25 115.13 1199.62 115.13
  L 1185.96 115.13
  Q 1185.37 115.13 1185.37 115.72
  Q 1185.36 138.34 1185.39 159.65
  C 1185.40 169.80 1179.33 177.58 1169.36 178.85
  C 1159.32 180.13 1152.00 172.88 1151.93 162.83
  Q 1151.77 142.12 1151.90 115.64
  A 0.52 0.52 0.0 0 0 1151.38 115.12
  L 1137.51 115.13
  A 0.50 0.49 -90.0 0 0 1137.02 115.63
  Q 1136.93 142.45 1137.07 166.09
  C 1137.14 177.10 1142.69 187.99 1153.70 191.29
  C 1164.56 194.55 1177.24 191.54 1183.29 181.16
  Q 1184.07 179.82 1184.87 178.56"
/>
<path stroke="#b3b8c2" vector-effect="non-scaling-stroke" d="
  M 1310.38 115.55
  A 0.43 0.43 0.0 0 0 1309.95 115.12
  L 1295.93 115.12
  A 0.43 0.43 0.0 0 0 1295.50 115.55
  L 1295.50 191.07
  A 0.43 0.43 0.0 0 0 1295.93 191.50
  L 1309.95 191.50
  A 0.43 0.43 0.0 0 0 1310.38 191.07
  L 1310.38 115.55"
/>
<path stroke="#b3b8c2" vector-effect="non-scaling-stroke" d="
  M 1403.67 174.43
  Q 1403.18 174.07 1402.98 173.47
  Q 1393.43 144.26 1384.10 115.56
  A 0.63 0.63 0.0 0 0 1383.50 115.12
  L 1368.64 115.12
  A 0.43 0.43 0.0 0 0 1368.23 115.70
  L 1395.66 191.61
  A 2.40 2.37 -47.4 0 1 1395.71 193.01
  Q 1394.43 197.54 1392.23 201.67
  C 1389.01 207.72 1383.62 208.06 1377.42 206.43
  Q 1376.90 206.29 1376.75 206.81
  L 1373.39 218.20
  A 0.40 0.40 0.0 0 0 1373.66 218.69
  C 1384.79 221.96 1396.88 220.20 1403.60 210.05
  C 1404.95 208.01 1406.28 206.07 1407.12 203.75
  Q 1423.08 160.04 1439.23 115.53
  Q 1439.37 115.12 1438.94 115.12
  L 1424.01 115.14
  Q 1423.40 115.14 1423.21 115.72
  L 1404.11 174.29
  A 0.28 0.28 0.0 0 1 1403.67 174.43"
/>
<path stroke="#888c94" vector-effect="non-scaling-stroke" d="
  M 567.87 128.45
  L 567.89 120.57
  Q 567.89 120.00 567.32 120.00
  L 551.00 120.00
  Q 550.50 120.00 550.50 120.50
  L 550.50 189.00
  Q 550.50 189.50 551.00 189.50
  L 567.51 189.50
  Q 568.13 189.50 568.13 188.88
  Q 568.15 170.58 568.10 154.08
  C 568.06 145.31 571.67 135.85 581.42 134.12
  C 591.32 132.36 599.81 136.88 599.92 147.89
  Q 600.15 170.52 599.97 188.93
  Q 599.96 189.50 600.53 189.50
  L 617.00 189.50
  Q 617.65 189.50 617.65 188.85
  Q 617.57 169.50 617.68 149.70
  Q 617.72 142.82 616.55 138.61
  C 613.48 127.57 604.72 119.90 593.21 119.07
  C 583.82 118.39 576.03 120.27 570.62 128.55
  Q 570.37 128.92 569.94 129.04
  Q 569.24 129.22 568.51 129.16
  Q 567.87 129.10 567.87 128.45"
/>
<path stroke="#888c94" vector-effect="non-scaling-stroke" d="
  M 535.12 120.31
  A 0.31 0.31 0.0 0 0 534.81 120.00
  L 517.81 120.00
  A 0.31 0.31 0.0 0 0 517.50 120.31
  L 517.50 189.19
  A 0.31 0.31 0.0 0 0 517.81 189.50
  L 534.81 189.50
  A 0.31 0.31 0.0 0 0 535.12 189.19
  L 535.12 120.31"
/>
<path stroke="#a599e1" vector-effect="non-scaling-stroke" d="
  M 203.75 107.19
  A 3.38 3.38 0.0 0 0 202.06 104.26
  L 142.14 69.68
  A 3.38 3.38 0.0 0 0 138.76 69.68
  L 78.69 104.29
  A 3.38 3.38 0.0 0 0 77.00 107.22
  L 77.00 176.21
  A 3.38 3.38 0.0 0 0 78.69 179.14
  L 138.68 213.74
  A 3.38 3.38 0.0 0 0 142.06 213.74
  L 202.06 179.16
  A 3.38 3.38 0.0 0 0 203.75 176.23
  L 203.75 107.19"
/>
<path stroke="#c0c0f9" vector-effect="non-scaling-stroke" d="
  M 164.87 95.05
  A 1.79 1.79 0.0 0 0 163.99 93.50
  L 141.39 80.24
  A 1.79 1.79 0.0 0 0 139.57 80.24
  L 117.01 93.49
  A 1.79 1.79 0.0 0 0 116.13 95.03
  L 116.13 121.68
  A 1.79 1.79 0.0 0 0 117.01 123.22
  L 139.57 136.46
  A 1.79 1.79 0.0 0 0 141.39 136.46
  L 163.98 123.21
  A 1.79 1.79 0.0 0 0 164.86 121.67
  L 164.87 95.05"
/>
<path stroke="#c0c0f9" vector-effect="non-scaling-stroke" d="
  M 86.12 171.64
  A 1.87 1.87 0.0 0 0 87.04 173.25
  L 109.51 186.44
  A 1.87 1.87 0.0 0 0 111.41 186.44
  L 133.95 173.23
  A 1.87 1.87 0.0 0 0 134.87 171.62
  L 134.87 145.10
  A 1.87 1.87 0.0 0 0 133.95 143.49
  L 111.42 130.27
  A 1.87 1.87 0.0 0 0 109.52 130.28
  L 87.05 143.46
  A 1.87 1.87 0.0 0 0 86.13 145.07
  L 86.12 171.64"
/>
<path stroke="#c0c0f9" vector-effect="non-scaling-stroke" d="
  M 194.87 145.02
  A 1.77 1.77 0.0 0 0 194.00 143.50
  L 171.39 130.24
  A 1.77 1.77 0.0 0 0 169.59 130.24
  L 147.00 143.52
  A 1.77 1.77 0.0 0 0 146.13 145.04
  L 146.13 171.69
  A 1.77 1.77 0.0 0 0 147.00 173.21
  L 169.60 186.46
  A 1.77 1.77 0.0 0 0 171.40 186.46
  L 194.00 173.20
  A 1.77 1.77 0.0 0 0 194.87 171.68
  L 194.87 145.02"
/>
<path stroke="#b3b8c2" vector-effect="non-scaling-stroke" d="
  M 867.97 167.75
  C 874.07 152.00 869.90 123.60 846.50 126.85
  C 827.50 129.49 825.78 159.35 833.81 171.79
  Q 838.43 178.94 845.86 180.19
  C 856.19 181.93 864.22 177.46 867.97 167.75"
/>
</g>
<path fill="#ffffff" d="
  M 0.00 0.00
  L 1494.00 0.00
  L 1494.00 282.00
  L 0.00 282.00
  L 0.00 0.00
  Z
  M 224.69 176.63
  Q 237.99 145.23 227.25 111.86
  Q 225.53 106.53 221.90 100.45
  C 217.66 93.32 214.05 85.79 208.17 79.55
  C 191.03 61.35 168.25 50.57 143.46 50.04
  C 107.02 49.24 74.54 69.32 58.81 101.96
  C 48.76 122.82 47.13 147.86 54.79 170.20
  C 65.93 202.65 93.86 225.95 127.78 231.04
  C 160.12 235.88 192.69 222.67 212.66 197.06
  Q 215.66 193.21 219.10 187.35
  Q 222.87 180.93 224.69 176.63
  Z
  M 1312.3999 94.4507
  A 9.41 8.89 -0.3 0 0 1302.9435 85.6101
  A 9.41 8.89 -0.3 0 0 1293.5801 94.5493
  A 9.41 8.89 -0.3 0 0 1303.0365 103.3899
  A 9.41 8.89 -0.3 0 0 1312.3999 94.4507
  Z
  M 789.01 159.53
  C 787.69 167.10 781.70 173.61 774.99 176.44
  Q 767.14 179.75 758.79 178.62
  C 742.04 176.37 733.65 162.39 732.41 146.32
  C 731.47 134.16 733.06 122.06 740.39 112.83
  C 748.69 102.39 762.95 99.72 774.89 104.79
  Q 786.26 109.63 789.18 122.27
  Q 789.30 122.75 789.80 122.75
  L 804.46 122.75
  A 0.29 0.29 0.0 0 0 804.74 122.41
  C 800.57 98.61 779.87 85.58 756.49 88.67
  C 734.99 91.52 721.08 107.64 717.83 128.49
  C 714.13 152.16 720.79 180.34 745.78 189.85
  Q 759.70 195.15 774.98 191.34
  C 790.63 187.44 801.66 175.32 804.68 159.33
  Q 804.79 158.75 804.20 158.75
  L 789.94 158.75
  Q 789.15 158.75 789.01 159.53
  Z
  M 362.48 121.63
  C 364.10 140.80 384.25 145.36 399.52 148.50
  Q 406.73 149.99 412.21 152.90
  Q 417.64 155.79 417.46 162.33
  C 417.29 168.38 412.55 172.91 406.94 174.23
  C 395.95 176.80 381.20 175.09 378.71 161.96
  Q 377.99 158.18 378.32 154.34
  Q 378.39 153.62 377.66 153.62
  L 360.60 153.62
  A 0.44 0.43 -87.9 0 0 360.17 154.03
  C 359.54 164.09 361.78 173.70 369.06 180.83
  C 379.73 191.29 396.45 193.28 410.66 190.18
  C 426.25 186.79 436.79 175.00 435.56 158.29
  C 434.08 138.10 410.96 133.75 395.21 130.20
  C 388.06 128.59 379.71 125.52 380.58 116.38
  C 381.57 106.00 393.60 104.89 401.82 106.16
  Q 414.63 108.15 414.98 120.96
  Q 415.03 123.03 415.00 125.08
  Q 414.99 125.64 415.55 125.64
  L 432.74 125.63
  A 0.32 0.32 0.0 0 0 433.06 125.33
  C 433.63 116.56 432.26 108.20 426.54 101.24
  C 414.58 86.68 385.17 85.77 371.30 97.50
  Q 361.17 106.06 362.48 121.63
  Z
  M 537.7970 101.0002
  A 11.47 11.32 1.3 0 0 526.5868 89.4229
  A 11.47 11.32 1.3 0 0 514.8630 100.4798
  A 11.47 11.32 1.3 0 0 526.0732 112.0571
  A 11.47 11.32 1.3 0 0 537.7970 101.0002
  Z
  M 309.75 108.57
  A 0.32 0.32 0.0 0 1 310.07 108.25
  L 353.93 108.25
  A 0.32 0.32 0.0 0 0 354.25 107.93
  L 354.25 91.82
  A 0.32 0.32 0.0 0 0 353.93 91.50
  L 291.57 91.50
  A 0.32 0.32 0.0 0 0 291.25 91.82
  L 291.25 189.18
  A 0.32 0.32 0.0 0 0 291.57 189.50
  L 354.81 189.50
  A 0.32 0.32 0.0 0 0 355.13 189.18
  L 355.12 173.07
  A 0.32 0.32 0.0 0 0 354.80 172.75
  L 310.07 172.75
  A 0.32 0.32 0.0 0 1 309.75 172.43
  L 309.75 148.82
  A 0.32 0.32 0.0 0 1 310.07 148.50
  L 350.05 148.50
  A 0.32 0.32 0.0 0 0 350.37 148.18
  L 350.38 131.91
  A 0.32 0.32 0.0 0 0 350.06 131.59
  L 310.07 131.62
  A 0.32 0.32 0.0 0 1 309.75 131.30
  L 309.75 108.57
  Z
  M 464.07 172.75
  A 0.32 0.32 0.0 0 1 463.75 172.43
  L 463.75 91.82
  A 0.32 0.32 0.0 0 0 463.43 91.50
  L 445.57 91.50
  A 0.32 0.32 0.0 0 0 445.25 91.82
  L 445.25 189.18
  A 0.32 0.32 0.0 0 0 445.57 189.50
  L 508.18 189.50
  A 0.32 0.32 0.0 0 0 508.50 189.18
  L 508.50 173.07
  A 0.32 0.32 0.0 0 0 508.18 172.75
  L 464.07 172.75
  Z
  M 1346.85 127.15
  L 1361.18 127.14
  Q 1361.75 127.14 1361.75 126.57
  L 1361.75 115.71
  A 0.59 0.58 90.0 0 0 1361.17 115.12
  L 1346.51 115.14
  Q 1346.13 115.14 1346.13 114.76
  L 1346.13 97.36
  A 0.49 0.48 0.0 0 0 1345.64 96.88
  L 1331.82 96.86
  Q 1331.25 96.86 1331.25 97.43
  L 1331.25 114.70
  Q 1331.25 115.14 1330.80 115.14
  L 1320.61 115.12
  A 0.48 0.48 0.0 0 0 1320.13 115.60
  L 1320.12 126.50
  Q 1320.12 127.14 1320.75 127.14
  L 1330.76 127.15
  Q 1331.21 127.15 1331.22 127.60
  Q 1331.34 146.35 1331.17 167.03
  Q 1331.09 176.56 1332.66 180.28
  C 1337.64 192.04 1351.13 194.48 1362.62 191.13
  Q 1363.21 190.96 1363.08 190.36
  L 1360.66 179.26
  Q 1360.50 178.50 1359.74 178.69
  C 1352.84 180.45 1346.18 178.72 1346.16 170.14
  Q 1346.10 148.55 1346.13 127.87
  Q 1346.13 127.15 1346.85 127.15
  Z
  M 660.06 134.63
  L 677.93 134.63
  Q 678.50 134.64 678.50 134.07
  L 678.50 120.50
  A 0.50 0.50 0.0 0 0 678.00 120.00
  L 660.00 120.00
  Q 659.50 120.00 659.50 119.50
  L 659.50 99.00
  Q 659.50 98.50 659.00 98.50
  L 642.43 98.50
  Q 641.87 98.50 641.87 99.07
  L 641.88 119.44
  Q 641.88 120.00 641.31 120.00
  L 625.00 120.00
  Q 624.50 120.00 624.50 120.50
  L 624.50 134.00
  Q 624.50 134.63 625.13 134.63
  L 641.46 134.64
  A 0.35 0.35 0.0 0 1 641.81 134.99
  Q 642.00 153.30 641.78 170.95
  C 641.69 178.67 643.17 184.99 650.47 188.26
  Q 653.76 189.73 660.35 189.56
  Q 668.12 189.37 676.12 189.55
  Q 676.88 189.57 676.88 188.82
  L 676.87 175.69
  Q 676.87 175.01 676.19 175.01
  L 662.89 174.99
  A 3.40 3.39 -90.0 0 1 659.50 171.59
  L 659.50 135.19
  Q 659.50 134.63 660.06 134.63
  Z
  M 843.54 192.55
  C 858.21 194.67 871.94 189.75 879.63 176.98
  C 889.56 160.47 887.36 133.40 871.69 121.19
  C 857.92 110.46 835.71 111.88 824.02 125.06
  C 814.74 135.51 812.75 150.67 815.29 163.99
  C 818.10 178.75 828.49 190.39 843.54 192.55
  Z
  M 912.18 126.21
  Q 912.04 120.69 912.18 115.54
  A 0.41 0.41 0.0 0 0 911.77 115.12
  L 898.24 115.13
  A 0.38 0.38 0.0 0 0 897.86 115.51
  L 897.86 190.93
  Q 897.86 191.50 898.43 191.50
  L 912.07 191.50
  Q 912.74 191.50 912.74 190.83
  Q 912.77 168.58 912.72 144.67
  C 912.71 138.55 915.16 132.77 920.34 129.43
  C 927.32 124.92 938.23 126.74 941.37 134.93
  Q 942.53 137.97 942.46 144.98
  Q 942.23 167.92 942.41 190.97
  Q 942.41 191.50 942.95 191.50
  L 956.56 191.50
  Q 957.25 191.50 957.25 190.81
  Q 957.25 166.04 957.25 142.02
  C 957.25 134.71 961.94 128.17 969.68 127.17
  C 978.89 125.99 986.77 130.72 986.81 140.74
  Q 986.92 166.28 986.85 191.11
  Q 986.84 191.50 987.24 191.50
  L 1001.22 191.50
  Q 1001.74 191.50 1001.74 190.98
  Q 1001.78 164.40 1001.72 139.38
  C 1001.68 124.06 992.53 113.40 976.73 114.16
  Q 961.74 114.88 955.19 127.45
  A 0.40 0.39 -43.2 0 1 954.48 127.43
  Q 949.67 116.68 939.17 114.62
  C 928.73 112.58 918.15 116.32 913.55 126.48
  Q 912.26 129.32 912.18 126.21
  Z
  M 1032.05 127.66
  Q 1031.98 127.67 1031.92 127.62
  Q 1031.78 127.49 1031.78 127.31
  Q 1031.72 121.57 1031.76 115.51
  A 0.38 0.38 0.0 0 0 1031.38 115.13
  L 1018.00 115.13
  Q 1017.37 115.13 1017.37 115.75
  L 1017.37 191.06
  Q 1017.37 191.50 1017.81 191.50
  L 1031.80 191.50
  A 0.45 0.45 0.0 0 0 1032.25 191.05
  Q 1032.29 169.31 1032.21 146.66
  C 1032.19 139.89 1033.42 134.47 1038.84 130.16
  C 1045.61 124.78 1056.39 126.25 1060.56 134.11
  Q 1061.93 136.70 1061.91 141.31
  Q 1061.81 167.23 1061.88 191.12
  A 0.38 0.38 0.0 0 0 1062.26 191.50
  L 1076.47 191.50
  Q 1076.71 191.50 1076.71 191.25
  Q 1076.85 167.90 1076.68 144.77
  Q 1076.64 139.30 1077.85 136.21
  C 1081.43 127.11 1091.64 124.76 1099.71 128.82
  Q 1106.42 132.21 1106.38 142.00
  Q 1106.33 152.88 1106.38 190.85
  Q 1106.38 191.50 1107.04 191.50
  L 1120.70 191.50
  Q 1121.26 191.50 1121.26 190.95
  Q 1121.24 166.81 1121.26 141.57
  C 1121.26 136.57 1120.86 131.39 1118.79 126.77
  C 1114.11 116.36 1103.00 112.71 1092.12 114.63
  C 1085.62 115.77 1078.88 119.63 1075.84 125.53
  Q 1075.34 126.50 1074.70 127.33
  Q 1074.17 128.01 1073.84 127.22
  C 1071.10 120.69 1066.01 116.18 1059.14 114.73
  C 1048.24 112.43 1037.36 116.37 1032.83 127.06
  A 1.00 1.00 0.0 0 1 1032.05 127.66
  Z
  M 1230.49 127.60
  A 0.42 0.42 0.0 0 1 1230.27 127.23
  L 1230.24 115.68
  Q 1230.24 115.12 1229.68 115.12
  L 1216.93 115.14
  Q 1216.00 115.14 1216.00 116.07
  L 1216.00 191.25
  Q 1216.00 191.50 1216.25 191.50
  L 1230.28 191.50
  Q 1230.87 191.50 1230.87 190.90
  Q 1230.86 170.49 1230.88 145.90
  C 1230.88 135.08 1237.51 127.00 1248.73 127.04
  Q 1257.40 127.06 1261.65 133.10
  C 1264.57 137.24 1264.92 141.80 1264.91 146.79
  Q 1264.83 168.07 1264.86 190.86
  Q 1264.86 191.50 1265.50 191.50
  L 1279.26 191.49
  A 0.45 0.44 -0.0 0 0 1279.71 191.05
  Q 1279.81 166.43 1279.71 141.24
  C 1279.67 129.04 1273.82 118.36 1261.70 115.16
  C 1249.70 111.99 1237.25 115.38 1231.29 127.29
  Q 1231.01 127.86 1230.49 127.60
  Z
  M 1184.87 178.56
  Q 1185.62 177.38 1185.62 178.78
  L 1185.63 190.81
  A 0.69 0.68 -90.0 0 0 1186.31 191.50
  L 1199.75 191.50
  Q 1200.25 191.50 1200.25 191.00
  L 1200.25 115.75
  Q 1200.25 115.13 1199.62 115.13
  L 1185.96 115.13
  Q 1185.37 115.13 1185.37 115.72
  Q 1185.36 138.34 1185.39 159.65
  C 1185.40 169.80 1179.33 177.58 1169.36 178.85
  C 1159.32 180.13 1152.00 172.88 1151.93 162.83
  Q 1151.77 142.12 1151.90 115.64
  A 0.52 0.52 0.0 0 0 1151.38 115.12
  L 1137.51 115.13
  A 0.50 0.49 -90.0 0 0 1137.02 115.63
  Q 1136.93 142.45 1137.07 166.09
  C 1137.14 177.10 1142.69 187.99 1153.70 191.29
  C 1164.56 194.55 1177.24 191.54 1183.29 181.16
  Q 1184.07 179.82 1184.87 178.56
  Z
  M 1310.38 115.55
  A 0.43 0.43 0.0 0 0 1309.95 115.12
  L 1295.93 115.12
  A 0.43 0.43 0.0 0 0 1295.50 115.55
  L 1295.50 191.07
  A 0.43 0.43 0.0 0 0 1295.93 191.50
  L 1309.95 191.50
  A 0.43 0.43 0.0 0 0 1310.38 191.07
  L 1310.38 115.55
  Z
  M 1403.67 174.43
  Q 1403.18 174.07 1402.98 173.47
  Q 1393.43 144.26 1384.10 115.56
  A 0.63 0.63 0.0 0 0 1383.50 115.12
  L 1368.64 115.12
  A 0.43 0.43 0.0 0 0 1368.23 115.70
  L 1395.66 191.61
  A 2.40 2.37 -47.4 0 1 1395.71 193.01
  Q 1394.43 197.54 1392.23 201.67
  C 1389.01 207.72 1383.62 208.06 1377.42 206.43
  Q 1376.90 206.29 1376.75 206.81
  L 1373.39 218.20
  A 0.40 0.40 0.0 0 0 1373.66 218.69
  C 1384.79 221.96 1396.88 220.20 1403.60 210.05
  C 1404.95 208.01 1406.28 206.07 1407.12 203.75
  Q 1423.08 160.04 1439.23 115.53
  Q 1439.37 115.12 1438.94 115.12
  L 1424.01 115.14
  Q 1423.40 115.14 1423.21 115.72
  L 1404.11 174.29
  A 0.28 0.28 0.0 0 1 1403.67 174.43
  Z
  M 567.87 128.45
  L 567.89 120.57
  Q 567.89 120.00 567.32 120.00
  L 551.00 120.00
  Q 550.50 120.00 550.50 120.50
  L 550.50 189.00
  Q 550.50 189.50 551.00 189.50
  L 567.51 189.50
  Q 568.13 189.50 568.13 188.88
  Q 568.15 170.58 568.10 154.08
  C 568.06 145.31 571.67 135.85 581.42 134.12
  C 591.32 132.36 599.81 136.88 599.92 147.89
  Q 600.15 170.52 599.97 188.93
  Q 599.96 189.50 600.53 189.50
  L 617.00 189.50
  Q 617.65 189.50 617.65 188.85
  Q 617.57 169.50 617.68 149.70
  Q 617.72 142.82 616.55 138.61
  C 613.48 127.57 604.72 119.90 593.21 119.07
  C 583.82 118.39 576.03 120.27 570.62 128.55
  Q 570.37 128.92 569.94 129.04
  Q 569.24 129.22 568.51 129.16
  Q 567.87 129.10 567.87 128.45
  Z
  M 535.12 120.31
  A 0.31 0.31 0.0 0 0 534.81 120.00
  L 517.81 120.00
  A 0.31 0.31 0.0 0 0 517.50 120.31
  L 517.50 189.19
  A 0.31 0.31 0.0 0 0 517.81 189.50
  L 534.81 189.50
  A 0.31 0.31 0.0 0 0 535.12 189.19
  L 535.12 120.31
  Z"
/>
<path fill="#4b32c3" d="
  M 224.69 176.63
  Q 222.87 180.93 219.10 187.35
  Q 215.66 193.21 212.66 197.06
  C 192.69 222.67 160.12 235.88 127.78 231.04
  C 93.86 225.95 65.93 202.65 54.79 170.20
  C 47.13 147.86 48.76 122.82 58.81 101.96
  C 74.54 69.32 107.02 49.24 143.46 50.04
  C 168.25 50.57 191.03 61.35 208.17 79.55
  C 214.05 85.79 217.66 93.32 221.90 100.45
  Q 225.53 106.53 227.25 111.86
  Q 237.99 145.23 224.69 176.63
  Z
  M 203.75 107.19
  A 3.38 3.38 0.0 0 0 202.06 104.26
  L 142.14 69.68
  A 3.38 3.38 0.0 0 0 138.76 69.68
  L 78.69 104.29
  A 3.38 3.38 0.0 0 0 77.00 107.22
  L 77.00 176.21
  A 3.38 3.38 0.0 0 0 78.69 179.14
  L 138.68 213.74
  A 3.38 3.38 0.0 0 0 142.06 213.74
  L 202.06 179.16
  A 3.38 3.38 0.0 0 0 203.75 176.23
  L 203.75 107.19
  Z"
/>
<path fill="#ffffff" d="
  M 203.75 107.19
  L 203.75 176.23
  A 3.38 3.38 0.0 0 1 202.06 179.16
  L 142.06 213.74
  A 3.38 3.38 0.0 0 1 138.68 213.74
  L 78.69 179.14
  A 3.38 3.38 0.0 0 1 77.00 176.21
  L 77.00 107.22
  A 3.38 3.38 0.0 0 1 78.69 104.29
  L 138.76 69.68
  A 3.38 3.38 0.0 0 1 142.14 69.68
  L 202.06 104.26
  A 3.38 3.38 0.0 0 1 203.75 107.19
  Z
  M 164.87 95.05
  A 1.79 1.79 0.0 0 0 163.99 93.50
  L 141.39 80.24
  A 1.79 1.79 0.0 0 0 139.57 80.24
  L 117.01 93.49
  A 1.79 1.79 0.0 0 0 116.13 95.03
  L 116.13 121.68
  A 1.79 1.79 0.0 0 0 117.01 123.22
  L 139.57 136.46
  A 1.79 1.79 0.0 0 0 141.39 136.46
  L 163.98 123.21
  A 1.79 1.79 0.0 0 0 164.86 121.67
  L 164.87 95.05
  Z
  M 86.12 171.64
  A 1.87 1.87 0.0 0 0 87.04 173.25
  L 109.51 186.44
  A 1.87 1.87 0.0 0 0 111.41 186.44
  L 133.95 173.23
  A 1.87 1.87 0.0 0 0 134.87 171.62
  L 134.87 145.10
  A 1.87 1.87 0.0 0 0 133.95 143.49
  L 111.42 130.27
  A 1.87 1.87 0.0 0 0 109.52 130.28
  L 87.05 143.46
  A 1.87 1.87 0.0 0 0 86.13 145.07
  L 86.12 171.64
  Z
  M 194.87 145.02
  A 1.77 1.77 0.0 0 0 194.00 143.50
  L 171.39 130.24
  A 1.77 1.77 0.0 0 0 169.59 130.24
  L 147.00 143.52
  A 1.77 1.77 0.0 0 0 146.13 145.04
  L 146.13 171.69
  A 1.77 1.77 0.0 0 0 147.00 173.21
  L 169.60 186.46
  A 1.77 1.77 0.0 0 0 171.40 186.46
  L 194.00 173.20
  A 1.77 1.77 0.0 0 0 194.87 171.68
  L 194.87 145.02
  Z"
/>
<path fill="#8080f2" d="
  M 164.87 95.05
  L 164.86 121.67
  A 1.79 1.79 0.0 0 1 163.98 123.21
  L 141.39 136.46
  A 1.79 1.79 0.0 0 1 139.57 136.46
  L 117.01 123.22
  A 1.79 1.79 0.0 0 1 116.13 121.68
  L 116.13 95.03
  A 1.79 1.79 0.0 0 1 117.01 93.49
  L 139.57 80.24
  A 1.79 1.79 0.0 0 1 141.39 80.24
  L 163.99 93.50
  A 1.79 1.79 0.0 0 1 164.87 95.05
  Z"
/>
<ellipse fill="#667085" cx="0.00" cy="0.00" transform="translate(1302.99,94.50) rotate(-0.3)" rx="9.41" ry="8.89"/>
<path fill="#667085" d="
  M 774.99 176.44
  C 781.70 173.61 787.69 167.10 789.01 159.53
  Q 789.15 158.75 789.94 158.75
  L 804.20 158.75
  Q 804.79 158.75 804.68 159.33
  C 801.66 175.32 790.63 187.44 774.98 191.34
  Q 759.70 195.15 745.78 189.85
  C 720.79 180.34 714.13 152.16 717.83 128.49
  C 721.08 107.64 734.99 91.52 756.49 88.67
  C 779.87 85.58 800.57 98.61 804.74 122.41
  A 0.29 0.29 0.0 0 1 804.46 122.75
  L 789.80 122.75
  Q 789.30 122.75 789.18 122.27
  Q 786.26 109.63 774.89 104.79
  C 762.95 99.72 748.69 102.39 740.39 112.83
  C 733.06 122.06 731.47 134.16 732.41 146.32
  C 733.65 162.39 742.04 176.37 758.79 178.62
  Q 767.14 179.75 774.99 176.44
  Z"
/>
<path fill="#101828" d="
  M 399.52 148.50
  C 384.25 145.36 364.10 140.80 362.48 121.63
  Q 361.17 106.06 371.30 97.50
  C 385.17 85.77 414.58 86.68 426.54 101.24
  C 432.26 108.20 433.63 116.56 433.06 125.33
  A 0.32 0.32 0.0 0 1 432.74 125.63
  L 415.55 125.64
  Q 414.99 125.64 415.00 125.08
  Q 415.03 123.03 414.98 120.96
  Q 414.63 108.15 401.82 106.16
  C 393.60 104.89 381.57 106.00 380.58 116.38
  C 379.71 125.52 388.06 128.59 395.21 130.20
  C 410.96 133.75 434.08 138.10 435.56 158.29
  C 436.79 175.00 426.25 186.79 410.66 190.18
  C 396.45 193.28 379.73 191.29 369.06 180.83
  C 361.78 173.70 359.54 164.09 360.17 154.03
  A 0.44 0.43 -87.9 0 1 360.60 153.62
  L 377.66 153.62
  Q 378.39 153.62 378.32 154.34
  Q 377.99 158.18 378.71 161.96
  C 381.20 175.09 395.95 176.80 406.94 174.23
  C 412.55 172.91 417.29 168.38 417.46 162.33
  Q 417.64 155.79 412.21 152.90
  Q 406.73 149.99 399.52 148.50
  Z"
/>
<ellipse fill="#101828" cx="0.00" cy="0.00" transform="translate(526.33,100.74) rotate(1.3)" rx="11.47" ry="11.32"/>
<path fill="#101828" d="
  M 309.75 108.57
  L 309.75 131.30
  A 0.32 0.32 0.0 0 0 310.07 131.62
  L 350.06 131.59
  A 0.32 0.32 0.0 0 1 350.38 131.91
  L 350.37 148.18
  A 0.32 0.32 0.0 0 1 350.05 148.50
  L 310.07 148.50
  A 0.32 0.32 0.0 0 0 309.75 148.82
  L 309.75 172.43
  A 0.32 0.32 0.0 0 0 310.07 172.75
  L 354.80 172.75
  A 0.32 0.32 0.0 0 1 355.12 173.07
  L 355.13 189.18
  A 0.32 0.32 0.0 0 1 354.81 189.50
  L 291.57 189.50
  A 0.32 0.32 0.0 0 1 291.25 189.18
  L 291.25 91.82
  A 0.32 0.32 0.0 0 1 291.57 91.50
  L 353.93 91.50
  A 0.32 0.32 0.0 0 1 354.25 91.82
  L 354.25 107.93
  A 0.32 0.32 0.0 0 1 353.93 108.25
  L 310.07 108.25
  A 0.32 0.32 0.0 0 0 309.75 108.57
  Z"
/>
<path fill="#101828" d="
  M 464.07 172.75
  L 508.18 172.75
  A 0.32 0.32 0.0 0 1 508.50 173.07
  L 508.50 189.18
  A 0.32 0.32 0.0 0 1 508.18 189.50
  L 445.57 189.50
  A 0.32 0.32 0.0 0 1 445.25 189.18
  L 445.25 91.82
  A 0.32 0.32 0.0 0 1 445.57 91.50
  L 463.43 91.50
  A 0.32 0.32 0.0 0 1 463.75 91.82
  L 463.75 172.43
  A 0.32 0.32 0.0 0 0 464.07 172.75
  Z"
/>
<path fill="#667085" d="
  M 1346.13 127.87
  Q 1346.10 148.55 1346.16 170.14
  C 1346.18 178.72 1352.84 180.45 1359.74 178.69
  Q 1360.50 178.50 1360.66 179.26
  L 1363.08 190.36
  Q 1363.21 190.96 1362.62 191.13
  C 1351.13 194.48 1337.64 192.04 1332.66 180.28
  Q 1331.09 176.56 1331.17 167.03
  Q 1331.34 146.35 1331.22 127.60
  Q 1331.21 127.15 1330.76 127.15
  L 1320.75 127.14
  Q 1320.12 127.14 1320.12 126.50
  L 1320.13 115.60
  A 0.48 0.48 0.0 0 1 1320.61 115.12
  L 1330.80 115.14
  Q 1331.25 115.14 1331.25 114.70
  L 1331.25 97.43
  Q 1331.25 96.86 1331.82 96.86
  L 1345.64 96.88
  A 0.49 0.48 -0.0 0 1 1346.13 97.36
  L 1346.13 114.76
  Q 1346.13 115.14 1346.51 115.14
  L 1361.17 115.12
  A 0.59 0.58 90.0 0 1 1361.75 115.71
  L 1361.75 126.57
  Q 1361.75 127.14 1361.18 127.14
  L 1346.85 127.15
  Q 1346.13 127.15 1346.13 127.87
  Z"
/>
<path fill="#101828" d="
  M 659.50 135.19
  L 659.50 171.59
  A 3.40 3.39 90.0 0 0 662.89 174.99
  L 676.19 175.01
  Q 676.87 175.01 676.87 175.69
  L 676.88 188.82
  Q 676.88 189.57 676.12 189.55
  Q 668.12 189.37 660.35 189.56
  Q 653.76 189.73 650.47 188.26
  C 643.17 184.99 641.69 178.67 641.78 170.95
  Q 642.00 153.30 641.81 134.99
  A 0.35 0.35 0.0 0 0 641.46 134.64
  L 625.13 134.63
  Q 624.50 134.63 624.50 134.00
  L 624.50 120.50
  Q 624.50 120.00 625.00 120.00
  L 641.31 120.00
  Q 641.88 120.00 641.88 119.44
  L 641.87 99.07
  Q 641.87 98.50 642.43 98.50
  L 659.00 98.50
  Q 659.50 98.50 659.50 99.00
  L 659.50 119.50
  Q 659.50 120.00 660.00 120.00
  L 678.00 120.00
  A 0.50 0.50 0.0 0 1 678.50 120.50
  L 678.50 134.07
  Q 678.50 134.64 677.93 134.63
  L 660.06 134.63
  Q 659.50 134.63 659.50 135.19
  Z"
/>
<path fill="#667085" d="
  M 843.54 192.55
  C 828.49 190.39 818.10 178.75 815.29 163.99
  C 812.75 150.67 814.74 135.51 824.02 125.06
  C 835.71 111.88 857.92 110.46 871.69 121.19
  C 887.36 133.40 889.56 160.47 879.63 176.98
  C 871.94 189.75 858.21 194.67 843.54 192.55
  Z
  M 867.97 167.75
  C 874.07 152.00 869.90 123.60 846.50 126.85
  C 827.50 129.49 825.78 159.35 833.81 171.79
  Q 838.43 178.94 845.86 180.19
  C 856.19 181.93 864.22 177.46 867.97 167.75
  Z"
/>
<path fill="#667085" d="
  M 912.18 126.21
  Q 912.26 129.32 913.55 126.48
  C 918.15 116.32 928.73 112.58 939.17 114.62
  Q 949.67 116.68 954.48 127.43
  A 0.40 0.39 -43.2 0 0 955.19 127.45
  Q 961.74 114.88 976.73 114.16
  C 992.53 113.40 1001.68 124.06 1001.72 139.38
  Q 1001.78 164.40 1001.74 190.98
  Q 1001.74 191.50 1001.22 191.50
  L 987.24 191.50
  Q 986.84 191.50 986.85 191.11
  Q 986.92 166.28 986.81 140.74
  C 986.77 130.72 978.89 125.99 969.68 127.17
  C 961.94 128.17 957.25 134.71 957.25 142.02
  Q 957.25 166.04 957.25 190.81
  Q 957.25 191.50 956.56 191.50
  L 942.95 191.50
  Q 942.41 191.50 942.41 190.97
  Q 942.23 167.92 942.46 144.98
  Q 942.53 137.97 941.37 134.93
  C 938.23 126.74 927.32 124.92 920.34 129.43
  C 915.16 132.77 912.71 138.55 912.72 144.67
  Q 912.77 168.58 912.74 190.83
  Q 912.74 191.50 912.07 191.50
  L 898.43 191.50
  Q 897.86 191.50 897.86 190.93
  L 897.86 115.51
  A 0.38 0.38 0.0 0 1 898.24 115.13
  L 911.77 115.12
  A 0.41 0.41 0.0 0 1 912.18 115.54
  Q 912.04 120.69 912.18 126.21
  Z"
/>
<path fill="#667085" d="
  M 1032.05 127.66
  A 1.00 1.00 0.0 0 0 1032.83 127.06
  C 1037.36 116.37 1048.24 112.43 1059.14 114.73
  C 1066.01 116.18 1071.10 120.69 1073.84 127.22
  Q 1074.17 128.01 1074.70 127.33
  Q 1075.34 126.50 1075.84 125.53
  C 1078.88 119.63 1085.62 115.77 1092.12 114.63
  C 1103.00 112.71 1114.11 116.36 1118.79 126.77
  C 1120.86 131.39 1121.26 136.57 1121.26 141.57
  Q 1121.24 166.81 1121.26 190.95
  Q 1121.26 191.50 1120.70 191.50
  L 1107.04 191.50
  Q 1106.38 191.50 1106.38 190.85
  Q 1106.33 152.88 1106.38 142.00
  Q 1106.42 132.21 1099.71 128.82
  C 1091.64 124.76 1081.43 127.11 1077.85 136.21
  Q 1076.64 139.30 1076.68 144.77
  Q 1076.85 167.90 1076.71 191.25
  Q 1076.71 191.50 1076.47 191.50
  L 1062.26 191.50
  A 0.38 0.38 0.0 0 1 1061.88 191.12
  Q 1061.81 167.23 1061.91 141.31
  Q 1061.93 136.70 1060.56 134.11
  C 1056.39 126.25 1045.61 124.78 1038.84 130.16
  C 1033.42 134.47 1032.19 139.89 1032.21 146.66
  Q 1032.29 169.31 1032.25 191.05
  A 0.45 0.45 0.0 0 1 1031.80 191.50
  L 1017.81 191.50
  Q 1017.37 191.50 1017.37 191.06
  L 1017.37 115.75
  Q 1017.37 115.13 1018.00 115.13
  L 1031.38 115.13
  A 0.38 0.38 0.0 0 1 1031.76 115.51
  Q 1031.72 121.57 1031.78 127.31
  Q 1031.78 127.49 1031.92 127.62
  Q 1031.98 127.67 1032.05 127.66
  Z"
/>
<path fill="#667085" d="
  M 1230.49 127.60
  Q 1231.01 127.86 1231.29 127.29
  C 1237.25 115.38 1249.70 111.99 1261.70 115.16
  C 1273.82 118.36 1279.67 129.04 1279.71 141.24
  Q 1279.81 166.43 1279.71 191.05
  A 0.45 0.44 -0.0 0 1 1279.26 191.49
  L 1265.50 191.50
  Q 1264.86 191.50 1264.86 190.86
  Q 1264.83 168.07 1264.91 146.79
  C 1264.92 141.80 1264.57 137.24 1261.65 133.10
  Q 1257.40 127.06 1248.73 127.04
  C 1237.51 127.00 1230.88 135.08 1230.88 145.90
  Q 1230.86 170.49 1230.87 190.90
  Q 1230.87 191.50 1230.28 191.50
  L 1216.25 191.50
  Q 1216.00 191.50 1216.00 191.25
  L 1216.00 116.07
  Q 1216.00 115.14 1216.93 115.14
  L 1229.68 115.12
  Q 1230.24 115.12 1230.24 115.68
  L 1230.27 127.23
  A 0.42 0.42 0.0 0 0 1230.49 127.60
  Z"
/>
<path fill="#667085" d="
  M 1184.87 178.56
  Q 1184.07 179.82 1183.29 181.16
  C 1177.24 191.54 1164.56 194.55 1153.70 191.29
  C 1142.69 187.99 1137.14 177.10 1137.07 166.09
  Q 1136.93 142.45 1137.02 115.63
  A 0.50 0.49 -90.0 0 1 1137.51 115.13
  L 1151.38 115.12
  A 0.52 0.52 0.0 0 1 1151.90 115.64
  Q 1151.77 142.12 1151.93 162.83
  C 1152.00 172.88 1159.32 180.13 1169.36 178.85
  C 1179.33 177.58 1185.40 169.80 1185.39 159.65
  Q 1185.36 138.34 1185.37 115.72
  Q 1185.37 115.13 1185.96 115.13
  L 1199.62 115.13
  Q 1200.25 115.13 1200.25 115.75
  L 1200.25 191.00
  Q 1200.25 191.50 1199.75 191.50
  L 1186.31 191.50
  A 0.69 0.68 90.0 0 1 1185.63 190.81
  L 1185.62 178.78
  Q 1185.62 177.38 1184.87 178.56
  Z"
/>
<rect fill="#667085" x="1295.50" y="115.12" width="14.88" height="76.38" rx="0.43"/>
<path fill="#667085" d="
  M 1403.67 174.43
  A 0.28 0.28 0.0 0 0 1404.11 174.29
  L 1423.21 115.72
  Q 1423.40 115.14 1424.01 115.14
  L 1438.94 115.12
  Q 1439.37 115.12 1439.23 115.53
  Q 1423.08 160.04 1407.12 203.75
  C 1406.28 206.07 1404.95 208.01 1403.60 210.05
  C 1396.88 220.20 1384.79 221.96 1373.66 218.69
  A 0.40 0.40 0.0 0 1 1373.39 218.20
  L 1376.75 206.81
  Q 1376.90 206.29 1377.42 206.43
  C 1383.62 208.06 1389.01 207.72 1392.23 201.67
  Q 1394.43 197.54 1395.71 193.01
  A 2.40 2.37 -47.4 0 0 1395.66 191.61
  L 1368.23 115.70
  A 0.43 0.43 0.0 0 1 1368.64 115.12
  L 1383.50 115.12
  A 0.63 0.63 0.0 0 1 1384.10 115.56
  Q 1393.43 144.26 1402.98 173.47
  Q 1403.18 174.07 1403.67 174.43
  Z"
/>
<path fill="#101828" d="
  M 568.51 129.16
  Q 569.24 129.22 569.94 129.04
  Q 570.37 128.92 570.62 128.55
  C 576.03 120.27 583.82 118.39 593.21 119.07
  C 604.72 119.90 613.48 127.57 616.55 138.61
  Q 617.72 142.82 617.68 149.70
  Q 617.57 169.50 617.65 188.85
  Q 617.65 189.50 617.00 189.50
  L 600.53 189.50
  Q 599.96 189.50 599.97 188.93
  Q 600.15 170.52 599.92 147.89
  C 599.81 136.88 591.32 132.36 581.42 134.12
  C 571.67 135.85 568.06 145.31 568.10 154.08
  Q 568.15 170.58 568.13 188.88
  Q 568.13 189.50 567.51 189.50
  L 551.00 189.50
  Q 550.50 189.50 550.50 189.00
  L 550.50 120.50
  Q 550.50 120.00 551.00 120.00
  L 567.32 120.00
  Q 567.89 120.00 567.89 120.57
  L 567.87 128.45
  Q 567.87 129.10 568.51 129.16
  Z"
/>
<rect fill="#101828" x="517.50" y="120.00" width="17.62" height="69.50" rx="0.31"/>
<path fill="#ffffff" d="
  M 846.50 126.85
  C 869.90 123.60 874.07 152.00 867.97 167.75
  C 864.22 177.46 856.19 181.93 845.86 180.19
  Q 838.43 178.94 833.81 171.79
  C 825.78 159.35 827.50 129.49 846.50 126.85
  Z"
/>
<path fill="#8080f2" d="
  M 86.12 171.64
  L 86.13 145.07
  A 1.87 1.87 0.0 0 1 87.05 143.46
  L 109.52 130.28
  A 1.87 1.87 0.0 0 1 111.42 130.27
  L 133.95 143.49
  A 1.87 1.87 0.0 0 1 134.87 145.10
  L 134.87 171.62
  A 1.87 1.87 0.0 0 1 133.95 173.23
  L 111.41 186.44
  A 1.87 1.87 0.0 0 1 109.51 186.44
  L 87.04 173.25
  A 1.87 1.87 0.0 0 1 86.12 171.64
  Z"
/>
<path fill="#8080f2" d="
  M 194.87 145.02
  L 194.87 171.68
  A 1.77 1.77 0.0 0 1 194.00 173.20
  L 171.40 186.46
  A 1.77 1.77 0.0 0 1 169.60 186.46
  L 147.00 173.21
  A 1.77 1.77 0.0 0 1 146.13 171.69
  L 146.13 145.04
  A 1.77 1.77 0.0 0 1 147.00 143.52
  L 169.59 130.24
  A 1.77 1.77 0.0 0 1 171.39 130.24
  L 194.00 143.50
  A 1.77 1.77 0.0 0 1 194.87 145.02
  Z"
/>
</svg>
