<svg
  xmlns="http://www.w3.org/2000/svg"
  version="1.1"
  viewBox="0.00 0.00 282.00 282.00"
>
  <path
    fill="#4b32c3"
    d=" M 224.69 176.63 Q 222.87 180.93 219.10 187.35 Q 215.66 193.21 212.66 197.06 C 192.69 222.67 160.12 235.88 127.78 231.04 C 93.86 225.95 65.93 202.65 54.79 170.20 C 47.13 147.86 48.76 122.82 58.81 101.96 C 74.54 69.32 107.02 49.24 143.46 50.04 C 168.25 50.57 191.03 61.35 208.17 79.55 C 214.05 85.79 217.66 93.32 221.90 100.45 Q 225.53 106.53 227.25 111.86 Q 237.99 145.23 224.69 176.63 Z M 203.75 107.19 A 3.38 3.38 0.0 0 0 202.06 104.26 L 142.14 69.68 A 3.38 3.38 0.0 0 0 138.76 69.68 L 78.69 104.29 A 3.38 3.38 0.0 0 0 77.00 107.22 L 77.00 176.21 A 3.38 3.38 0.0 0 0 78.69 179.14 L 138.68 213.74 A 3.38 3.38 0.0 0 0 142.06 213.74 L 202.06 179.16 A 3.38 3.38 0.0 0 0 203.75 176.23 L 203.75 107.19 Z"
  />
  <path
    fill="#ffffff"
    d=" M 203.75 107.19 L 203.75 176.23 A 3.38 3.38 0.0 0 1 202.06 179.16 L 142.06 213.74 A 3.38 3.38 0.0 0 1 138.68 213.74 L 78.69 179.14 A 3.38 3.38 0.0 0 1 77.00 176.21 L 77.00 107.22 A 3.38 3.38 0.0 0 1 78.69 104.29 L 138.76 69.68 A 3.38 3.38 0.0 0 1 142.14 69.68 L 202.06 104.26 A 3.38 3.38 0.0 0 1 203.75 107.19 Z M 164.87 95.05 A 1.79 1.79 0.0 0 0 163.99 93.50 L 141.39 80.24 A 1.79 1.79 0.0 0 0 139.57 80.24 L 117.01 93.49 A 1.79 1.79 0.0 0 0 116.13 95.03 L 116.13 121.68 A 1.79 1.79 0.0 0 0 117.01 123.22 L 139.57 136.46 A 1.79 1.79 0.0 0 0 141.39 136.46 L 163.98 123.21 A 1.79 1.79 0.0 0 0 164.86 121.67 L 164.87 95.05 Z M 86.12 171.64 A 1.87 1.87 0.0 0 0 87.04 173.25 L 109.51 186.44 A 1.87 1.87 0.0 0 0 111.41 186.44 L 133.95 173.23 A 1.87 1.87 0.0 0 0 134.87 171.62 L 134.87 145.10 A 1.87 1.87 0.0 0 0 133.95 143.49 L 111.42 130.27 A 1.87 1.87 0.0 0 0 109.52 130.28 L 87.05 143.46 A 1.87 1.87 0.0 0 0 86.13 145.07 L 86.12 171.64 Z M 194.87 145.02 A 1.77 1.77 0.0 0 0 194.00 143.50 L 171.39 130.24 A 1.77 1.77 0.0 0 0 169.59 130.24 L 147.00 143.52 A 1.77 1.77 0.0 0 0 146.13 145.04 L 146.13 171.69 A 1.77 1.77 0.0 0 0 147.00 173.21 L 169.60 186.46 A 1.77 1.77 0.0 0 0 171.40 186.46 L 194.00 173.20 A 1.77 1.77 0.0 0 0 194.87 171.68 L 194.87 145.02 Z"
  />
  <path
    fill="#8080f2"
    d=" M 164.87 95.05 L 164.86 121.67 A 1.79 1.79 0.0 0 1 163.98 123.21 L 141.39 136.46 A 1.79 1.79 0.0 0 1 139.57 136.46 L 117.01 123.22 A 1.79 1.79 0.0 0 1 116.13 121.68 L 116.13 95.03 A 1.79 1.79 0.0 0 1 117.01 93.49 L 139.57 80.24 A 1.79 1.79 0.0 0 1 141.39 80.24 L 163.99 93.50 A 1.79 1.79 0.0 0 1 164.87 95.05 Z"
  />
  <path
    fill="#8080f2"
    d=" M 86.12 171.64 L 86.13 145.07 A 1.87 1.87 0.0 0 1 87.05 143.46 L 109.52 130.28 A 1.87 1.87 0.0 0 1 111.42 130.27 L 133.95 143.49 A 1.87 1.87 0.0 0 1 134.87 145.10 L 134.87 171.62 A 1.87 1.87 0.0 0 1 133.95 173.23 L 111.41 186.44 A 1.87 1.87 0.0 0 1 109.51 186.44 L 87.04 173.25 A 1.87 1.87 0.0 0 1 86.12 171.64 Z"
  />
  <path
    fill="#8080f2"
    d=" M 194.87 145.02 L 194.87 171.68 A 1.77 1.77 0.0 0 1 194.00 173.20 L 171.40 186.46 A 1.77 1.77 0.0 0 1 169.60 186.46 L 147.00 173.21 A 1.77 1.77 0.0 0 1 146.13 171.69 L 146.13 145.04 A 1.77 1.77 0.0 0 1 147.00 143.52 L 169.59 130.24 A 1.77 1.77 0.0 0 1 171.39 130.24 L 194.00 143.50 A 1.77 1.77 0.0 0 1 194.87 145.02 Z"
  />
</svg>
